<?xml version="1.0" standalone="no"?>
<!DOCTYPE svg PUBLIC "-//W3C//DTD SVG 20010904//EN"
 "http://www.w3.org/TR/2001/REC-SVG-20010904/DTD/svg10.dtd">
<svg version="1.0" xmlns="http://www.w3.org/2000/svg"
 width="1000.000000pt" height="1000.000000pt" viewBox="0 0 1000.000000 1000.000000"
 preserveAspectRatio="xMidYMid meet">
<metadata>
Created by potrace 1.14, written by Peter Selinger 2001-2017
</metadata>
<g transform="translate(0.000000,1000.000000) scale(0.100000,-0.100000)"
fill="#000000" stroke="none">
<path d="M6607 7374 c-1 -2 -43 -5 -92 -8 -157 -10 -238 -15 -315 -21 -41 -4
-100 -8 -130 -10 -135 -9 -210 -15 -280 -21 -41 -3 -95 -8 -120 -9 -25 -2 -45
-4 -45 -5 0 -1 -29 -3 -65 -6 -36 -3 -83 -7 -105 -9 -87 -8 -162 -15 -205 -20
-25 -3 -70 -8 -100 -11 -54 -5 -95 -11 -95 -14 0 -1 -18 -3 -40 -4 -45 -4
-134 -15 -180 -22 -16 -3 -50 -7 -75 -9 -25 -3 -61 -7 -80 -10 -19 -3 -53 -7
-75 -10 -22 -3 -47 -7 -55 -10 -8 -2 -40 -7 -70 -10 -30 -4 -60 -11 -66 -16
-6 -5 -13 -7 -16 -4 -3 3 -38 -2 -79 -10 -41 -9 -82 -17 -91 -18 -10 -1 -18
-5 -18 -10 0 -4 -5 -5 -10 -2 -11 7 -339 -100 -354 -116 -6 -5 -18 -9 -28 -9
-10 0 -18 -5 -18 -12 0 -6 -3 -9 -6 -5 -11 10 -110 -49 -155 -93 -14 -14 -37
-41 -51 -60 -34 -45 -120 -210 -110 -210 4 0 2 -4 -4 -8 -6 -4 -26 -41 -44
-82 -18 -41 -50 -112 -71 -156 -22 -45 -39 -86 -39 -91 0 -5 -11 -31 -24 -59
-13 -27 -27 -60 -31 -74 -4 -14 -11 -29 -15 -35 -3 -5 -14 -31 -24 -57 -18
-49 -25 -55 -41 -39 -13 11 -100 39 -145 46 -49 7 -94 -23 -120 -80 -24 -53
-32 -121 -18 -149 14 -27 60 -65 78 -66 9 0 11 3 4 8 -32 22 -47 138 -24 182
6 11 8 20 4 20 -4 0 5 11 20 25 23 21 34 24 64 19 20 -3 47 -6 60 -7 12 -1 22
-5 22 -8 0 -3 14 -6 31 -7 17 0 33 -3 36 -6 11 -11 -68 -160 -100 -187 -32
-29 -210 -131 -327 -190 -36 -18 -68 -37 -72 -43 -4 -6 -8 -8 -8 -4 0 3 -32
-11 -71 -33 -40 -21 -73 -39 -75 -39 -5 0 -320 -173 -379 -208 -33 -20 -69
-44 -79 -54 -11 -10 -23 -18 -26 -18 -7 0 -53 -88 -56 -108 -2 -8 -6 -21 -10
-30 -10 -24 -10 -23 -44 -162 -48 -192 -69 -283 -74 -310 -3 -14 -5 -25 -6
-25 -1 0 -3 -7 -5 -15 -2 -8 -8 -35 -13 -60 -6 -25 -14 -72 -17 -105 -4 -33
-9 -64 -12 -68 -2 -4 -20 -5 -39 -1 -35 6 -90 -18 -79 -36 3 -4 0 -10 -6 -12
-12 -4 -17 -182 -9 -309 5 -86 24 -116 120 -186 47 -34 88 -62 92 -62 3 -1 37
-21 75 -46 37 -25 74 -45 81 -45 6 0 12 -5 12 -10 0 -6 12 -16 28 -23 15 -6
29 -14 32 -17 11 -12 119 -80 128 -80 17 0 38 -35 36 -60 -2 -14 2 -47 9 -75
6 -27 11 -52 12 -55 1 -9 27 -73 55 -135 29 -63 141 -195 166 -195 8 0 14 -4
14 -8 0 -8 23 -20 118 -57 61 -24 92 -29 202 -29 93 -1 111 2 160 25 63 30
123 77 114 90 -3 5 -1 9 4 9 5 0 12 10 15 22 6 20 7 20 31 4 15 -9 26 -14 26
-11 0 4 13 -3 30 -15 16 -12 30 -18 30 -13 0 4 4 3 8 -2 6 -9 156 -82 247
-120 17 -7 51 -22 77 -34 26 -11 50 -21 53 -21 3 0 24 -8 48 -19 144 -64 325
-121 365 -115 22 4 22 2 16 -44 -18 -124 -6 -222 29 -244 7 -4 8 -8 3 -8 -5 0
10 -18 32 -40 105 -99 304 -204 409 -215 21 -2 52 -9 68 -16 32 -14 39 -15
100 -24 54 -9 53 -9 110 -1 28 4 56 8 63 8 6 1 12 5 12 10 0 5 5 6 10 3 6 -3
16 -3 23 2 6 4 20 9 31 10 28 5 185 86 196 103 3 3 12 11 21 16 64 36 188 159
261 259 169 233 240 624 158 870 -12 36 -27 65 -32 65 -6 0 -9 3 -5 6 3 3 -3
16 -14 28 -25 26 -72 117 -64 124 12 12 117 -111 141 -165 31 -69 61 -186 69
-267 3 -32 7 -61 9 -65 3 -4 1 -13 -4 -21 -9 -14 4 -49 23 -62 10 -6 44 -4 97
7 14 3 45 8 70 11 25 3 48 8 51 10 3 2 21 6 40 9 19 3 66 12 104 20 75 15 128
25 160 31 34 5 313 62 350 70 11 3 57 12 103 20 46 8 93 19 105 23 12 5 25 9
30 10 4 0 8 1 10 2 1 0 12 2 23 3 20 2 21 -1 20 -73 -4 -141 7 -162 149 -286
117 -103 259 -185 318 -185 16 0 38 -5 49 -11 27 -15 121 -18 173 -7 50 11
175 68 175 79 0 5 6 9 13 9 14 0 116 87 153 130 12 14 32 36 44 50 29 33 93
127 111 165 9 17 20 39 26 50 54 98 135 377 118 405 -3 6 -2 10 4 10 5 0 8 11
5 25 -2 14 0 25 6 25 5 0 10 -6 10 -14 0 -26 37 -28 107 -6 37 12 77 23 88 26
33 6 99 38 117 57 10 9 27 17 38 17 11 0 20 4 20 10 0 5 3 9 8 8 4 -2 23 6 42
18 39 23 85 103 77 134 -3 11 -1 20 4 22 13 4 19 151 7 165 -6 7 -14 10 -19 7
-5 -3 -9 -1 -9 3 0 5 -15 15 -34 21 -28 10 -34 17 -31 35 3 12 20 91 39 177
19 85 37 169 39 185 3 17 10 52 16 79 7 27 14 63 16 80 28 187 23 669 -10 961
-3 28 -7 65 -7 83 -1 17 -4 32 -7 32 -3 0 -7 21 -7 48 -1 26 -4 72 -8 102 -4
30 -9 75 -11 100 -3 25 -7 66 -11 91 -7 59 -12 155 -19 339 -7 194 -14 265
-32 320 -31 94 -91 133 -408 270 -11 5 -60 23 -110 40 -49 17 -108 38 -130 47
-22 8 -41 15 -42 14 -2 0 -8 1 -15 4 -32 9 -283 86 -378 115 -58 18 -124 38
-147 46 -23 7 -52 15 -65 18 -13 2 -42 11 -65 20 -24 8 -43 13 -43 9 0 -3 -6
-1 -12 4 -12 9 -79 29 -123 37 -11 1 -27 6 -35 9 -8 3 -35 8 -60 11 -25 2 -52
7 -61 11 -15 6 -367 14 -372 9z m227 -2265 c-2 -4 0 -10 5 -13 5 -3 7 -15 4
-27 -8 -30 -23 -3 -23 41 0 25 3 31 9 20 6 -8 8 -17 5 -21z m-1172 -59 c88
-32 103 -46 93 -84 -36 -128 -113 -153 -259 -87 l-67 31 4 48 c5 54 27 134 40
143 11 8 80 -11 189 -51z m-3694 -420 c-15 -24 -19 -21 -11 8 3 12 9 19 14 16
5 -3 3 -14 -3 -24z m90 -335 c-3 -3 -9 2 -12 12 -6 14 -5 15 5 6 7 -7 10 -15
7 -18z m6678 -298 c-14 -137 -52 -220 -125 -276 -19 -14 -31 -20 -27 -13 4 7
10 32 12 55 8 77 11 92 38 181 14 48 26 97 26 107 0 18 2 18 39 -2 35 -18 39
-24 37 -52z m-4217 -1110 c-5 -16 -11 -32 -15 -36 -4 -3 -4 2 -1 12 4 10 7 33
7 50 0 22 3 28 9 18 5 -8 5 -27 0 -44z m-9 -57 c0 -5 -5 -10 -11 -10 -5 0 -7
5 -4 10 3 6 8 10 11 10 2 0 4 -4 4 -10z m2770 -50 c0 -5 -2 -10 -4 -10 -3 0
-8 5 -11 10 -3 6 -1 10 4 10 6 0 11 -4 11 -10z m-2134 -167 c-18 -33 -21 -26
-6 13 6 15 13 24 16 21 3 -3 -1 -18 -10 -34z m-645 -410 c13 -16 12 -17 -3 -4
-17 13 -22 21 -14 21 2 0 10 -8 17 -17z"/>
</g>
</svg>
